<?xml version="1.0" encoding="UTF-8" standalone="no"?>
<svg xmlns="http://www.w3.org/2000/svg" width="128" height="128" viewBox="0 0 128 128">
  <!-- 背景 - 使用低调的灰色系列 -->
  <rect width="128" height="128" rx="8" ry="8" fill="#333"/>

  <!-- 股票图表区域 -->
  <rect x="12" y="24" width="104" height="80" rx="4" ry="4" fill="#ffffff" opacity="0.05"/>

  <!-- 股票线条 - 上涨趋势 (使用红色) -->
  <path d="M20,72 L32,68 L44,76 L56,60 L68,64 L80,52 L92,48 L104,40" fill="none" stroke="#d32f2f" stroke-width="3" stroke-linecap="round" />

  <!-- 股票标记点 -->
  <circle cx="20" cy="72" r="3" fill="#d32f2f" />
  <circle cx="104" cy="40" r="3" fill="#d32f2f" />

  <!-- 装饰元素 - 交易柱状图 -->
  <g transform="translate(17, 100)">
    <rect x="0" y="-8" width="6" height="8" fill="#d32f2f" opacity="0.5" />
    <rect x="12" y="-12" width="6" height="12" fill="#d32f2f" opacity="0.5" />
    <rect x="24" y="-4" width="6" height="4" fill="#d32f2f" opacity="0.5" />
    <rect x="36" y="-20" width="6" height="20" fill="#d32f2f" opacity="0.5" />
    <rect x="48" y="-16" width="6" height="16" fill="#d32f2f" opacity="0.5" />
    <rect x="60" y="-28" width="6" height="28" fill="#d32f2f" opacity="0.5" />
    <rect x="72" y="-32" width="6" height="32" fill="#d32f2f" opacity="0.5" />
    <rect x="84" y="-40" width="6" height="40" fill="#d32f2f" opacity="0.5" />
  </g>
</svg>